<svg xmlns="http://www.w3.org/2000/svg" viewBox="0 0 100 100" role="img" aria-label="Cookies &amp; Tokens">
  <!-- Favicon: the brand's Venn diagram. Purple cookie on the left, teal token
       octagon on the right, overlapping in the middle — exactly the "Cookie /
       Overlap / Token" metaphor the site is built around. The overlap region is
       brightened so the intersection reads even at 16px. -->
  <rect width="100" height="100" rx="22" fill="#11112E"/>

  <!-- RIGHT (behind): token octagon — teal outline. -->
  <path d="M59 30 H78 L91 43 V61 L78 74 H59 L46 61 V43 Z"
    stroke="#3FD9C0" stroke-width="8" stroke-linejoin="round" fill="none"/>

  <!-- LEFT (in front): cookie disc (purple) with a nibbled bite on its top-right
       edge and two cream chips. Drawn last so it overlaps the token. -->
  <g transform="translate(38 52)">
    <path fill="#A974E8"
      d="M 26.90 -2.35 A 27.00 27.00 0 1 1 2.35 -26.90 A 6.25 6.25 0 0 0 5.75 -17.41 A 4.31 4.31 0 0 0 7.65 -10.73 A 2.70 2.70 0 0 0 10.73 -7.65 A 4.31 4.31 0 0 0 17.41 -5.75 A 6.25 6.25 0 0 0 26.90 -2.35 Z"/>
    <g fill="#FFFFFF">
      <circle cx="-10" cy="-5" r="3.6"/>
      <circle cx="6" cy="-8" r="3.0"/>
      <circle cx="-6" cy="9.5" r="4.0"/>
      <circle cx="8.5" cy="8" r="3.3"/>
      <circle cx="0.5" cy="2" r="2.4"/>
    </g>
  </g>
</svg>
