<svg xmlns="http://www.w3.org/2000/svg" viewBox="-8 -8 124 124" role="img" aria-label="Cookie">
  <!-- Purple cookie "cookie" = human craft side. Sub-parts are independently
       grouped so the collision scene can parallax them at different rates:
         #cookie-body   – the disc with a bite masked out (top-right)
         #cookie-chips  – the light chip holes
         #cookie-crumbs – the crumb cloud near the bite
  -->
  <!-- Bite is a TRUE transparent hole, cut with fill-rule="evenodd" on a single
       path: an outer disc circle plus an inner bite circle. Both subpaths are
       complete closed circles (not a self-intersecting concave two-arc path, and
       not a <mask>) — WebKit/Safari render this reliably under GPU compositing,
       and because the hole is genuinely transparent it reads correctly over ANY
       background (flat navy here, the glowing lens in the collision scene, etc.).
       Disc r=46 about (50,51); bite r=21.85 at (72.23,30.08) carves the top-right. -->
  <g id="cookie-body">
    <path fill="#A974E8" fill-rule="evenodd" d="M 50 51 m -46 0 a 46 46 0 1 0 92 0 a 46 46 0 1 0 -92 0 Z M 72.23 30.08 m -21.85 0 a 21.85 21.85 0 1 1 43.7 0 a 21.85 21.85 0 1 1 -43.7 0 Z" />
  </g>

  <g id="cookie-chips" fill="#F5EFE6">
    <circle cx="32.75" cy="42.95" r="5.75"/>
    <circle cx="60.35" cy="38.35" r="4.83"/>
    <circle cx="39.65" cy="68.25" r="6.44"/>
    <circle cx="64.95" cy="64.8" r="5.29"/>
    <circle cx="51.15" cy="54.45" r="3.91"/>
  </g>

  <g id="cookie-crumbs" fill="#A974E8">
    <circle cx="98.3" cy="28" r="3.45"/>
    <circle cx="104.05" cy="17.65" r="2.3"/>
    <circle cx="93.7" cy="5" r="2.99"/>
    <circle cx="105.2" cy="32.6" r="2.07"/>
    <circle cx="87.95" cy="-0.75" r="2.42" fill="#C39BF0"/>
    <circle cx="100.6" cy="8.45" r="1.72" fill="#C39BF0"/>
  </g>
</svg>
