<svg xmlns="http://www.w3.org/2000/svg" viewBox="0 0 150 110" role="img" aria-label="Cookies &amp; Tokens mark">
  <!-- The combined lockup mark: teal token (octagon) with the purple cookie
       overlapping its left edge — the Venn that the Collision scene resolves
       onto. #lockup-token and #lockup-cookie are addressable end-state targets. -->
  <!-- Token octagon (behind) -->
  <g id="lockup-token">
    <path d="M73 21 H100 L119 40 V67 L100 86 H73 L54 67 V40 Z"
      stroke="#3FD9C0" stroke-width="7.5" stroke-linejoin="round" fill="none"/>
  </g>

  <!-- Cookie (in front, overlapping the octagon's left side) -->
  <g id="lockup-cookie">
    <!-- Bite = TRUE transparent hole via fill-rule="evenodd" (outer disc circle +
         inner bite circle, both complete closed circles). Transparent so the teal
         octagon shows through the bite; robust where the old self-intersecting
         concave two-arc path could drop. Disc (38,54) r40; bite (70,28) r18. -->
    <path fill="#A974E8" fill-rule="evenodd" d="M 38 54 m -40 0 a 40 40 0 1 0 80 0 a 40 40 0 1 0 -80 0 Z M 70 28 m -18 0 a 18 18 0 1 1 36 0 a 18 18 0 1 1 -36 0 Z" />
    <g fill="#F5EFE6">
      <circle cx="22" cy="46" r="5"/>
      <circle cx="46" cy="42" r="4.3"/>
      <circle cx="28" cy="68" r="5.5"/>
      <circle cx="53" cy="65" r="4.5"/>
      <circle cx="38" cy="56" r="3.4"/>
    </g>
    <g fill="#A974E8">
      <circle cx="73" cy="43" r="2.4"/>
      <circle cx="77" cy="36" r="1.6"/>
      <circle cx="70" cy="27" r="2.1" fill="#C39BF0"/>
      <circle cx="79" cy="46" r="1.4" fill="#C39BF0"/>
    </g>
  </g>
</svg>
